
<svg version="1.0" xmlns="http://www.w3.org/2000/svg"
 width="70%" 
               height="auto" 
               viewBox="0 0 724 202" 
 preserveAspectRatio="xMidYMid meet">
<metadata>
Created by potrace 1.16, written by Peter Selinger 2001-2019
</metadata>
<g transform="translate(0.000000,202.000000) scale(0.100000,-0.100000)"
fill="#000000" stroke="none">
<path d="M418 1764 c-5 -4 -8 -35 -8 -68 l0 -61 -52 0 -53 0 -3 -57 -3 -56
-47 -9 -47 -8 -3 -623 c-1 -397 1 -630 8 -642 9 -17 24 -18 252 -13 222 5 255
3 383 -18 184 -31 326 -31 510 0 128 21 161 23 382 18 168 -3 244 -2 252 6 8
8 11 196 11 639 0 527 -2 629 -14 634 -7 3 -30 6 -50 7 -38 2 -37 -1 -40 82
l-1 40 -47 3 -48 3 0 52 c0 78 -4 81 -103 74 -151 -11 -373 -79 -517 -161
l-75 -42 -103 52 c-115 58 -207 93 -331 124 -90 23 -241 37 -253 24z"/>
<path d="M5044 1697 c-11 -30 1 -51 34 -61 58 -16 65 -38 53 -168 -5 -62 -15
-183 -21 -268 -18 -246 -31 -364 -41 -377 -6 -6 -32 -13 -57 -15 -42 -3 -47
-5 -47 -28 0 -30 21 -34 206 -44 111 -5 128 -4 133 10 8 22 0 32 -40 49 -33
13 -34 16 -34 67 0 51 15 177 22 183 9 9 105 -18 116 -32 18 -25 74 -204 68
-219 -3 -7 -15 -14 -28 -16 -24 -3 -36 -34 -20 -50 6 -6 84 -16 174 -24 89 -8
186 -19 213 -23 28 -5 91 -14 140 -21 50 -6 98 -15 107 -20 9 -5 45 -14 80
-20 35 -5 108 -21 162 -34 104 -25 120 -25 131 1 7 20 -4 32 -58 58 -41 20
-42 21 -42 70 1 46 79 433 90 444 3 2 28 -1 56 -7 57 -13 79 -5 79 29 0 17
-26 29 -95 41 -27 5 -24 57 7 135 31 79 94 121 138 93 12 -8 11 -13 -7 -38
-34 -46 -37 -74 -13 -105 16 -21 30 -27 59 -27 49 0 75 20 90 69 9 33 9 47 -3
75 -31 75 -165 124 -260 96 -65 -19 -150 -112 -174 -191 -19 -61 -21 -64 -49
-60 -65 9 -68 8 -68 -24 0 -27 4 -31 43 -39 35 -7 41 -12 37 -27 -4 -11 -26
-118 -50 -240 -24 -121 -46 -223 -49 -227 -4 -3 -28 -9 -54 -12 -44 -5 -97 11
-124 38 -8 8 8 131 52 415 16 101 19 141 11 151 -7 8 -45 16 -94 20 -155 13
-142 14 -145 -17 -3 -23 2 -29 27 -38 44 -16 52 -50 36 -161 -7 -51 -18 -140
-25 -198 -20 -157 -17 -153 -100 -148 -93 5 -107 20 -155 168 -29 86 -47 124
-72 151 l-34 36 37 54 c62 89 88 109 146 109 42 0 71 20 66 46 -4 22 -35 28
-215 39 l-123 7 0 -30 c0 -27 4 -31 39 -37 22 -3 46 -12 55 -18 15 -11 14 -16
-4 -53 -12 -23 -36 -59 -54 -79 -29 -34 -38 -39 -90 -43 l-58 -5 6 59 c16 141
43 509 39 521 -4 9 -31 13 -102 13 -53 0 -106 3 -118 6 -15 4 -25 1 -29 -9z"/>
<path d="M5921 1581 c-62 -58 -26 -161 56 -161 49 0 93 45 93 95 0 27 -8 44
-29 66 -39 38 -79 38 -120 0z"/>
<path d="M4527 1409 c-92 -22 -176 -90 -225 -184 -24 -44 -27 -61 -27 -150 0
-117 17 -165 85 -239 57 -62 96 -84 174 -100 115 -25 228 12 304 98 121 138
119 340 -4 476 -80 89 -195 126 -307 99z m142 -86 c14 -11 41 -47 59 -81 43
-80 53 -192 28 -292 -22 -85 -51 -126 -103 -146 -80 -31 -142 -2 -179 83 -68
152 -39 378 56 441 41 28 97 25 139 -5z"/>
<path d="M2940 1399 c-36 -4 -87 -14 -115 -22 -27 -8 -111 -30 -185 -50 -231
-62 -225 -60 -225 -87 0 -25 1 -25 72 -22 61 2 73 0 81 -15 5 -10 30 -94 55
-188 25 -93 62 -228 82 -300 21 -76 35 -147 33 -170 -3 -39 -4 -40 -60 -58
-61 -20 -74 -35 -54 -62 12 -17 17 -17 82 4 38 12 134 37 214 56 272 66 350
97 431 172 86 79 109 163 70 248 -39 84 -112 126 -222 127 l-70 0 42 36 c70
60 88 144 50 228 -40 87 -133 121 -281 103z m79 -92 c42 -21 64 -62 69 -125 5
-75 -13 -113 -73 -148 -25 -14 -76 -34 -113 -44 -37 -10 -74 -21 -83 -24 -13
-6 -23 19 -58 150 -23 86 -41 158 -39 160 2 1 35 12 73 23 80 22 189 27 224 8z
m182 -370 c73 -49 93 -161 40 -234 -41 -57 -208 -133 -293 -133 -35 0 -41 4
-52 33 -18 43 -79 287 -74 293 3 2 54 17 114 33 138 37 218 40 265 8z"/>
<path d="M3748 1345 c-90 -25 -170 -94 -211 -184 -31 -67 -30 -225 2 -296 43
-96 133 -166 249 -196 47 -11 61 -11 120 5 98 26 179 86 217 161 28 55 30 66
30 169 -1 95 -4 118 -23 157 -48 98 -120 160 -215 185 -63 17 -107 16 -169 -1z
m142 -83 c34 -26 65 -73 91 -140 32 -83 32 -228 0 -295 -32 -65 -62 -87 -122
-87 -42 0 -55 5 -89 36 -101 91 -137 298 -74 429 15 33 49 64 84 78 25 10 83
-1 110 -21z"/>
<path d="M6543 1183 c-20 -7 -16 -24 12 -53 23 -24 26 -40 39 -181 8 -84 18
-197 21 -249 3 -52 10 -126 16 -163 l9 -68 -55 -74 c-48 -66 -95 -109 -95 -88
0 4 9 30 21 58 16 40 18 56 10 77 -21 55 -103 48 -133 -12 -51 -101 18 -214
119 -195 51 9 102 67 228 255 60 91 128 188 151 215 22 28 49 64 59 80 48 75
121 159 152 171 27 12 33 20 33 44 0 17 -6 32 -12 34 -7 2 -50 16 -94 30 -84
27 -108 26 -119 -1 -7 -19 1 -29 45 -51 19 -9 35 -22 37 -27 2 -6 -46 -82
-106 -168 l-109 -157 -8 97 c-4 54 -8 143 -8 198 l-1 100 35 0 c43 0 60 10 60
35 0 14 -11 22 -42 30 -24 6 -85 24 -136 41 -94 29 -107 32 -129 22z"/>
</g>
</svg>
